<svg xmlns="http://www.w3.org/2000/svg" version="1.1" xmlns:xlink="http://www.w3.org/1999/xlink" width="512" height="512" x="0" y="0" viewBox="0 0 512 512" style="enable-background:new 0 0 512 512" xml:space="preserve" class=""><g><path d="M0 0v512h512V0H0zm482 482H30V30h452v452z" fill="#ffbd39" opacity="1" data-original="#000000" class=""></path><path d="M202.18 181.6H172.9L107.86 352h34.08l15.6-42.48h59.52L232.9 352h34.08l-64.8-170.4zm-39.12 104.64 24.48-66.96 23.52 66.96h-48zM403.301 288.64c0-43.39-33.551-64.56-65.52-64.56-44.781 0-66.48 34.545-66.48 65.76 0 34.785 26.074 64.56 66.24 64.56 38.209 0 53.917-23.28 58.56-32.88l-27.6-7.68c-2.081 5.123-11.918 17.04-29.76 17.04-27.574 0-32.88-26.479-33.36-31.44h97.2c.319-1.279.72-8.719.72-10.8zm-98.4-10.08c1.474-18.435 15.474-31.2 32.4-31.2 16.449 0 30.949 11.14 32.88 31.2h-65.28z" fill="#ffbd39" opacity="1" data-original="#000000" class=""></path></g></svg>