<svg xmlns="http://www.w3.org/2000/svg" version="1.1" xmlns:xlink="http://www.w3.org/1999/xlink" width="512" height="512" x="0" y="0" viewBox="0 0 512 512" style="enable-background:new 0 0 512 512" xml:space="preserve" class=""><g><path d="M0 0v512h512V0H0zm482 482H30V30h452v452z" fill="#ffc44d" opacity="1" data-original="#000000" class=""></path><path d="M199.66 181.6h-29.28L105.34 352h34.08l15.6-42.48h59.52L230.38 352h34.08l-64.8-170.4zm-39.12 104.64 24.48-66.96 23.52 66.96h-48zM393.58 315.04v-88.8h-32.16v78c-3.683 7.68-13.769 22.8-32.4 22.8-13.92 0-20.88-9.679-20.88-29.04v-71.76h-32.16v78.72c0 32.54 13.921 49.44 39.601 49.44 29.82 0 45.037-17.28 50.639-25.92l.72 10.08c.637 4.643 4.711 14.88 20.4 14.88 1.758 0 3.72-.083 5.88-.24 2.159-.161 4.837-.563 8.04-1.2v-27.36c-7.36-.39-7.68-6.24-7.68-9.6z" fill="#ffc44d" opacity="1" data-original="#000000" class=""></path></g></svg>