<svg xmlns="http://www.w3.org/2000/svg" version="1.1" xmlns:xlink="http://www.w3.org/1999/xlink" width="512" height="512" x="0" y="0" viewBox="0 0 512 512" style="enable-background:new 0 0 512 512" xml:space="preserve"><g><path d="M0 0v512h512V0H0zm482 482H30V30h452v452z" fill="#ffbd39" opacity="1" data-original="#000000"></path><path d="M229.18 181.6h-72.24V352h33.12v-57.12h40.32c29.531 0 53.04-25.713 53.04-56.64 0-26.24-21.176-56.64-54.24-56.64zm-.719 84.24h-38.4v-55.2h36.96c14.057 0 22.8 13.2 22.8 27.6 0 16.76-9.742 27.6-21.36 27.6zM378.217 254.08V224.8c-29.04-3.05-43.121 24-45.36 28.32v-26.88h-29.52V352h32.16v-76.08c3.36-7.2 14.43-21.84 42.72-21.84z" fill="#ffbd39" opacity="1" data-original="#000000"></path></g></svg>